<?xml version="1.0" encoding="UTF-8"?>
<svg id="Layer_2" data-name="Layer 2" xmlns="http://www.w3.org/2000/svg" viewBox="0 0 782.45 207.4">
  <defs>
    <style>
      .cls-1 {
        fill: #fff;
      }
    </style>
  </defs>
  <g id="Layer_1-2" data-name="Layer 1">
    <g>
      <path d="M163.45,183.35h104.5c1.52,0,6.71,2.71,7.92,4.08,6.24,7.08,1.19,17.82-8.01,18.83-55.16-2.27-113.12,3.32-167.95.13C31.83,202.43-13.69,140.5,3.73,74.13,25.45-8.58,135.3-26.83,183.67,43.63c31.57,45.98,20.07,103.65-20.22,139.72ZM158.11,58.68c-3.43-3.59-10.47-4.76-14.62-1.79l-56.55,54.44c-9.58-6.59-27.9-37.98-40.93-22.91-7.98,9.24.85,17.12,6.91,23.94s19.5,21.19,26.02,25.98c6.05,4.45,12.54,4.24,18.02-.97l62.48-63.52c3.19-4.38,2.29-11.36-1.34-15.17Z"/>
      <polygon points="270.45 72.35 283.46 131.35 302.91 72.28 319.35 72.45 335.95 131.36 349.45 72.35 368.45 72.35 345.49 151.89 327.55 152.24 309.95 92.34 292.31 152.21 275.91 152.42 251.45 72.35 270.45 72.35"/>
      <path d="M716.45,152.35h-17l-1.5-8c-15.72,19.63-58.04,11.66-54.42-17.42,2.79-22.39,28.96-19.12,44.71-24.28,5.92-1.94,10.68-3.07,8.24-9.85-5.35-14.87-32.99-14.11-33.04,3.55h-16c-.6-24.89,29.78-32.32,48.99-24.49,29.9,12.18,12.2,56.78,20.01,80.49ZM698.44,111.35c-3.67.75-6.57,3.12-10.21,4.28-7.51,2.38-25.54,2.56-27.57,11.43-4.55,19.88,30.5,20.31,36.11.11.57-2.04,2.44-14.97,1.67-15.82Z"/>
      <path d="M533.45,104.35l30.5-32h21.5l-31.82,32.49,33.82,47.51h-19.5l-26-38.98-8.5,9.48v29.5h-17V39.35h15.5c.3,0,.77-1.27,1.5-1v66Z"/>
      <path d="M381.8,143.99c-21.17-22.6-11.14-71.28,24.27-74.52,53.7-4.91,58.71,82.34,8.92,85.92-12.82.92-24.22-1.83-33.19-11.4ZM405.19,83.59c-16.79,2.91-19.46,25.51-16.62,39.14,5.7,27.4,41.12,25.37,43.87-1.89,1.88-18.64-3.67-41.33-27.25-37.25Z"/>
      <rect x="765.45" y="38.35" width="17" height="114"/>
      <path d="M507.45,69.35v17c-9.39-2.62-20.03-.55-25.21,8.29-1.09,1.87-3.79,9.47-3.79,11.21v46.5h-17v-80h16l-1,10.99h1.98c4.13-11.4,18.05-14.97,29.02-13.99Z"/>
      <path d="M639.45,69.35v16c-8.53-.7-18.77,1.19-22.87,9.63-.81,1.66-3.13,8.52-3.13,9.87v47.5h-17v-80h15l.5,11c6.1-9.68,15.9-15.11,27.5-14Z"/>
      <rect x="730.45" y="72.35" width="17" height="80"/>
      <path d="M735.16,38.56c19-4.34,19.27,23.95.22,19.35-9.86-2.38-8.99-17.34-.22-19.35Z"/>
      <path class="cls-1" d="M158.11,58.68c3.63,3.8,4.53,10.79,1.34,15.17l-62.48,63.52c-5.48,5.21-11.97,5.42-18.02.97-6.52-4.79-20.22-19.45-26.02-25.98s-14.89-14.7-6.91-23.94c13.03-15.07,31.34,16.32,40.93,22.91l56.55-54.44c4.14-2.97,11.19-1.8,14.62,1.79Z"/>
      <path class="cls-1" d="M698.44,111.35c.76.84-1.11,13.77-1.67,15.82-5.61,20.2-40.66,19.77-36.11-.11,2.03-8.86,20.06-9.05,27.57-11.43,3.65-1.16,6.55-3.53,10.21-4.28Z"/>
      <path class="cls-1" d="M405.19,83.59c23.58-4.08,29.13,18.61,27.25,37.25-2.75,27.27-38.17,29.29-43.87,1.89-2.84-13.63-.17-36.23,16.62-39.14Z"/>
    </g>
  </g>
</svg>